<svg width="161px" height="30px" viewBox="0 0 161 30" version="1.1" xmlns="http://www.w3.org/2000/svg" xmlns:xlink="http://www.w3.org/1999/xlink">
    <g id="Page-1" stroke="none" stroke-width="1" fill="none" fill-rule="evenodd">
        <g id="PC_ol" transform="translate(-602.000000, -7333.000000)" fill="#FFFFFF" fill-rule="nonzero">
            <path d="M612.56,7361.96 L612.56,7361.32 C610.6,7361.32 609.64,7360.4 609.64,7359 L609.64,7350.04 L613.72,7350.04 C619.4,7350.04 623.16,7346.76 623.16,7341.88 C623.16,7337.08 619.52,7334.04 613.88,7334.04 L603.76,7334.04 L603.76,7334.64 C605.04,7334.64 605.84,7335.16 605.84,7335.8 L605.84,7359 C605.84,7360.4 604.92,7361.32 602.88,7361.32 L602.88,7361.96 L612.56,7361.96 Z M612.04,7349.4 L609.64,7349.4 L609.64,7334.68 L612.04,7334.68 C616.44,7334.68 619.36,7337.64 619.36,7342.08 C619.36,7346.4 616.56,7349.4 612.04,7349.4 Z M648.36,7360.64 C649.04,7359.92 648.68,7359.44 648,7360.16 C643.64,7364.8 646.28,7349.96 637.48,7348.24 C642.2,7347.68 645.2,7344.76 645.2,7341.04 C645.2,7337.12 641.48,7334.04 635.92,7334.04 L625.8,7334.04 L625.8,7334.36 C627.08,7334.36 627.88,7334.84 627.88,7335.48 L627.88,7359 C627.88,7360.4 626.96,7361.32 624.92,7361.32 L624.92,7361.96 L634.6,7361.96 L634.6,7361.32 C632.64,7361.32 631.68,7360.4 631.68,7359 L631.68,7348.36 L635.16,7348.36 C638.58806,7348.36 639.590189,7351.66897 640.427066,7355.02732 L640.652907,7355.94202 C641.428389,7359.07996 642.239403,7362 644.96,7362 C646.16,7362 647.12,7361.96 648.36,7360.64 Z M635.76,7348 L631.68,7348 L631.68,7334.4 L635.76,7334.4 C639.12,7334.4 641.4,7337.36 641.4,7341.04 C641.4,7345.04 639.24,7348 635.76,7348 Z M664.68,7362.56 C673.32,7362.56 679.2,7356.64 679.2,7347.88 C679.2,7339.36 673.68,7333.48 665,7333.48 C656.32,7333.48 650.48,7339.32 650.48,7348.12 C650.48,7356.8 656.16,7362.56 664.68,7362.56 Z M664.88,7361.96 C658.68,7361.96 654.24,7356.52 654.24,7348.08 C654.24,7339.76 658.6,7334.12 664.84,7334.12 C671.08,7334.12 675.4,7339.76 675.4,7348.12 C675.4,7356.52 671.04,7361.96 664.88,7361.96 Z M691.96,7362 L691.96,7361.36 C689.96,7361.36 688.6,7360.44 688.6,7359.04 L688.6,7347.2 L696.64,7347.2 C697.64,7347.2 699.32,7347.88 699.28,7350.8 L699.88,7350.8 L699.88,7343 L699.28,7343 C699.32,7345.88 697.64,7346.56 696.64,7346.56 L688.6,7346.56 L688.6,7334.72 L700.76,7334.68 C701.72,7334.68 702.8,7336.28 703.52,7338.76 L704.12,7338.76 L703.12,7334.04 L681.44,7334.04 L681.44,7334.68 C683.48,7334.68 684.8,7335.68 684.8,7337 L684.8,7359.04 C684.8,7360.36 683.48,7361.36 681.44,7361.36 L681.44,7362 L691.96,7362 Z M715.08,7362 L715.08,7361.36 C713.08,7361.36 712.16,7360.44 712.16,7359.04 L712.16,7337 C712.16,7335.6 713.12,7334.68 715.08,7334.68 L715.08,7334.04 L705.4,7334.04 L705.4,7334.68 C707.4,7334.68 708.36,7335.6 708.36,7337 L708.36,7359.04 C708.36,7360.44 707.4,7361.36 705.4,7361.36 L705.4,7362 L715.08,7362 Z M738.2,7362 L739.2,7357.28 L738.64,7357.28 C737.92,7359.76 736.8,7361.36 735.84,7361.36 L723.72,7361.36 L723.72,7337 C723.72,7335.6 724.64,7334.68 726.64,7334.68 L726.64,7334.04 L716.96,7334.04 L716.96,7334.68 C718.96,7334.68 719.92,7335.6 719.92,7337 L719.92,7359.04 C719.92,7360.36 719,7361.36 716.96,7361.36 L716.96,7362 L738.2,7362 Z M761.88,7362 L762.88,7357.28 L762.28,7357.28 C761.56,7359.76 760.48,7361.36 759.52,7361.36 L747.36,7361.36 L747.36,7347.2 L755.4,7347.2 C756.4,7347.2 758.08,7347.88 758.04,7350.8 L758.64,7350.8 L758.64,7343 L758.04,7343 C758.08,7345.88 756.4,7346.56 755.4,7346.56 L747.36,7346.56 L747.36,7334.72 L759.52,7334.68 C760.48,7334.68 761.56,7336.28 762.28,7338.76 L762.88,7338.76 L761.88,7334.04 L740.2,7334.04 L740.2,7334.68 C742.24,7334.68 743.56,7335.68 743.56,7337 L743.56,7359.04 C743.56,7360.36 742.24,7361.36 740.2,7361.36 L740.2,7362 L761.88,7362 Z" id="PROFILE"></path>
        </g>
    </g>
</svg>