<?xml version="1.0" encoding="UTF-8"?><svg id="a" xmlns="http://www.w3.org/2000/svg" xmlns:xlink="http://www.w3.org/1999/xlink" viewBox="0 0 762 467"><defs><style>.cls-1{fill:none;}.cls-2{clip-path:url(#clippath);}.cls-3{fill:#040000;}.cls-4{clip-path:url(#clippath-1);}</style><clipPath id="clippath"><rect class="cls-1" width="762" height="467"/></clipPath><clipPath id="clippath-1"><rect class="cls-1" width="762" height="467"/></clipPath></defs><g class="cls-2"><g class="cls-4"><path class="cls-3" d="M257.09357,271.27432h24.96283l12.36646-40.16899,12.36557,40.16899h24.73203l23.11459-75.1281h-22.99963l-12.24973,41.37007-12.7131-41.37009h-23.46036l-12.59726,41.0704-12.13477-41.0704h-24.61708l23.23048,75.12808-.00003,.00003Zm98.9281,0h24.73206l12.36465-40.06857,12.25153,40.06857h24.96283l23.22955-75.1281h-23.3454l-12.13477,41.07042-12.59726-41.0704h-23.46033l-12.82898,41.57013-11.5564-38.96635-12.01889,39.06755,10.40149,33.45676h-.00009Zm124.12265-75.1281h-22.76794l-9.13071,29.54996v45.57814h31.89865c25.30856,0,48.76895-7.91409,48.76895-37.56522s-23.46039-37.56288-48.76895-37.56288m-24.30753,69.73619c0,.53189-.05338,.94376-.1629,1.21991-.1059,.27142-.32312,.50366-.64627,.69427-.32584,.18985-.74854,.28635-1.25717,.28635-.54126,0-.96576-.06433-1.25903-.18829-.29324-.12631-.52133-.31146-.68246-.55072-.15384-.23141-.27515-.6676-.28421-.94534h1.51154c.0054,.11063,.02441,.2283,.06516,.33264,.04437,.11063,.11676,.20084,.21906,.26831,.07422,.0463,.1792,.06903,.30591,.06903,.20911,0,.36295-.06747,.45981-.20242,.09323-.13022,.13937-.3389,.13937-.63858v-2.87442h1.59116v2.52924l.00006,.00003Zm4.77444,2.12051l-.29868-.85355h-1.93512l-.29871,.85355h-1.61472l2.01749-4.64975h1.7713l2.01657,4.64975h-1.65814Zm6.70227-2.15112c-.3204,.26047-.82092,.39224-1.48526,.39224h-.97388v1.75885h-1.59659v-4.64975h2.75787c.59552,0,1.04449,.12317,1.33865,.36404,.29324,.2424,.44168,.59464,.44168,1.04495,0,.46286-.1629,.82919-.48245,1.08966m4.77628,2.15112l-.29871-.85355h-1.93423l-.30048,.85355h-1.612l2.01566-4.64975h1.77133l2.01654,4.64975h-1.65811Zm7.67712,0h-1.51428l-2.12515-2.70261v2.70261h-1.48526v-4.64975h1.49976l2.13516,2.71909v-2.71909h1.48981v4.64975h-.00003Zm.8381-15.96152h-6.93311v-36.66226h6.93311c15.83395,0,22.65302,4.80743,22.65302,18.32996,0,13.52406-6.81906,18.33232-22.65302,18.33232m-14.35226,12.76387c0,.77197-.65436,.77197-.93317,.77197h-.46521v-1.55804h.5304c.25793,0,.86798,0,.86798,.78607m4.57355-.4213l.70325,2.01462h-1.40927l.70602-2.01462Zm-11.48035,0l.70325,2.01462h-1.41013l.70688-2.01462Z"/></g></g><rect id="_スライス_" class="cls-1" x="231" y="196" width="301" height="78"/></svg>