<svg width="131px" height="39px" viewBox="0 0 131 39" version="1.1" xmlns="http://www.w3.org/2000/svg" xmlns:xlink="http://www.w3.org/1999/xlink">
    <defs>
        <polygon id="path-ss_xjwsozb-1" points="0 0 130 0 130 38.5927129 0 38.5927129"></polygon>
    </defs>
    <g id="Page-1" stroke="none" stroke-width="1" fill="none" fill-rule="evenodd">
        <g id="PC_ol" transform="translate(-1205.000000, -30.000000)">
            <g id="WWD" transform="translate(1205.477811, 30.000000)">
                <mask id="mask-ss_xjwsozb-2" fill="white">
                    <use xlink:href="#path-ss_xjwsozb-1"></use>
                </mask>
                <g id="Clip-3"></g>
                <path d="M99.3484036,35.0532173 L99.6582654,36.0881057 L99.0369466,36.0881057 L99.3484036,35.0532173 Z M104.406689,35.0532173 L104.716551,36.0881057 L104.09563,36.0881057 L104.406689,35.0532173 Z M102.39159,35.269625 C102.39159,35.6661711 102.103263,35.6661711 101.980435,35.6661711 L101.775455,35.6661711 L101.775455,34.8658251 L102.009148,34.8658251 C102.122804,34.8658251 102.39159,34.8658251 102.39159,35.269625 L102.39159,35.269625 Z M108.715244,28.7129139 L105.660493,28.7129139 L105.660493,9.87979899 L108.715244,9.87979899 C115.691721,9.87979899 118.696224,12.3493457 118.696224,19.295752 C118.696224,26.2429642 115.691721,28.7129139 108.715244,28.7129139 L108.715244,28.7129139 Z M108.345962,36.9122283 L107.678782,36.9122283 L106.742417,35.5239142 L106.742417,36.9122283 L106.087998,36.9122283 L106.087998,34.5236833 L106.748797,34.5236833 L107.689549,35.9204602 L107.689549,34.5236833 L108.345962,34.5236833 L108.345962,36.9122283 Z M104.963403,36.9122283 L104.831802,36.4737709 L103.979582,36.4737709 L103.847183,36.9122283 L103.136933,36.9122283 L104.025044,34.5236833 L104.805481,34.5236833 L105.693991,36.9122283 L104.963403,36.9122283 Z M102.858975,35.8072189 C102.717802,35.9410129 102.49727,36.0087159 102.204556,36.0087159 L101.775455,36.0087159 L101.775455,36.9122283 L101.071985,36.9122283 L101.071985,34.5236833 L102.287106,34.5236833 C102.549512,34.5236833 102.747313,34.5869533 102.87692,34.7106725 C103.006129,34.8351976 103.071531,35.0161419 103.071531,35.2474604 C103.071531,35.4852268 102.999748,35.673425 102.858975,35.8072189 L102.858975,35.8072189 Z M99.9059156,36.9122283 L99.7743141,36.4737709 L98.9216955,36.4737709 L98.790094,36.9122283 L98.078648,36.9122283 L98.9675567,34.5236833 L99.7479938,34.5236833 L100.636504,36.9122283 L99.9059156,36.9122283 Z M97.8022848,35.8229357 C97.8022848,36.0961656 97.778756,36.3077374 97.7305021,36.4495913 C97.6838434,36.5890271 97.5881332,36.7083133 97.4457642,36.8062409 C97.3021989,36.9037654 97.1159627,36.9533337 96.8918413,36.9533337 C96.6533634,36.9533337 96.4663296,36.9202882 96.3371208,36.8566151 C96.207912,36.7917331 96.1074163,36.6966265 96.0364312,36.5737134 C95.9686365,36.4552332 95.9151983,36.2307656 95.9112104,36.0881057 L96.577194,36.0881057 C96.5795867,36.1449278 96.5879614,36.2053769 96.605907,36.2589751 C96.6254479,36.3157973 96.6573513,36.3621416 96.7024148,36.396799 C96.7351158,36.4205757 96.7813758,36.4322625 96.8372067,36.4322625 C96.9293278,36.4322625 96.9971226,36.397605 97.0397934,36.3282901 C97.080869,36.2613931 97.1012074,36.1541967 97.1012074,36.000253 L97.1012074,34.5236833 L97.8022848,34.5236833 L97.8022848,35.8229357 Z M108.512258,0 L98.480631,0 L94.4576114,15.1795721 L94.4576114,38.5927129 L108.512258,38.5927129 C119.663296,38.5927129 130,34.5273102 130,19.295752 C130,4.0645967 119.663296,0 108.512258,0 L108.512258,0 Z M53.8234392,38.5927129 L64.7200476,38.5927129 L70.1683518,18.0097984 L75.5664082,38.5927129 L86.5651075,38.5927129 L96.800119,0 L86.514062,0 L81.1674499,21.0975378 L75.6170548,0 L65.2803512,0 L59.6278652,21.3542449 L54.5360815,1.33753683 L49.2405149,21.4062311 L53.8234392,38.5927129 Z M10.2350115,38.5927129 L21.2341096,38.5927129 L26.6828127,17.9582151 L32.1311169,38.5927129 L43.0281241,38.5927129 L53.212489,0 L43.0787707,0 L37.681512,21.2514815 L32.0800714,0 L21.7433678,0 L16.1929727,21.0975378 L10.8463606,0 L0,0 L10.2350115,38.5927129 Z" id="Fill-1" fill="#FFFFFF" mask="url(#mask-ss_xjwsozb-2)"></path>
            </g>
        </g>
    </g>
</svg>